<svg width="16" height="16" viewBox="0 0 16 16" fill="none" xmlns="http://www.w3.org/2000/svg">
<g clip-path="url(#clip0_10_1225)">
<path d="M8 0C3.584 0 0 3.584 0 8C0 12.416 3.584 16 8 16C12.416 16 16 12.416 16 8C16 3.584 12.416 0 8 0Z" fill="#37373E"/>
<path opacity="0.5" d="M7.93033 10.8818C8.39617 10.8818 8.5765 10.5587 8.5765 10.0854C8.5765 9.29645 8.84699 8.87568 9.80123 8.31216C10.763 7.73361 11.3716 6.92213 11.3716 5.74249C11.3716 4.13456 10.0492 3 8.18579 3C6.74317 3 5.63866 3.62363 5.19536 4.69057C5.06011 4.98361 5 5.23907 5 5.56216C5 5.95287 5.21038 6.17828 5.59358 6.17828C5.93169 6.17828 6.09699 6.03552 6.22473 5.57719C6.47268 4.67555 7.13388 4.17213 8.1332 4.17213C9.2377 4.17213 9.97404 4.83333 9.97404 5.81011C9.97404 6.5765 9.63593 7.06489 8.76434 7.59836C7.73497 8.21448 7.26161 8.8832 7.26161 9.89754V10.1079C7.26161 10.5362 7.46448 10.8818 7.93033 10.8818ZM7.92281 14C8.4112 14 8.77937 13.6243 8.77937 13.1434C8.77937 12.6551 8.4112 12.2869 7.92281 12.2869C7.44194 12.2869 7.06626 12.6551 7.06626 13.1434C7.06626 13.6243 7.44194 14 7.92281 14Z" fill="white"/>
</g>
<defs>
<clipPath id="clip0_10_1225">
<rect width="16" height="16" fill="white"/>
</clipPath>
</defs>
</svg>
